# xmcd CD database file
#
# Track frame offsets:
#	150
#	10890
#	21283
#	34288
#	49065
#	61283
#	72703
#	85180
#	97968
#	106340
#	114263
#	130468
#	146758
#	158533
#	172278
#	184480
#	195048
#	208855
#	219923
#	235700
#	250105
#	265540
#
# Disc length: 3683 seconds
#
# Revision: 1
# Processed by: cddbd v1.5.2PL0 Copyright (c) Steve Scherf et al.
# Submitted via: CDex 1.70beta1
#
DISCID=350e6116
DTITLE=etc. - Anime Syudaika Daizensyu 06
DYEAR=1900
DGENRE=
TTITLE0=MARINE KID no Uta
TTITLE1=Pyun Pyun Maru
TTITLE2=Yadamon
TTITLE3=OH NO Yadamon
TTITLE4=Ge Ge Ge no Kitaro
TTITLE5=Karan Koron no Uta
TTITLE6=Hoshiyo Kazeyo
TTITLE7=Sippo wa Gugun to
TTITLE8=Ai Ai Miko chan
TTITLE9=Dokokara Bokuwa
TTITLE10=Gekkoukamen wa Daredesyou
TTITLE11=Gekkoukamen no Uta
TTITLE12=MAMMOTH KONG no Uta
TTITLE13=LITTLE KONG no Uta
TTITLE14=Saa Aruki Hajimeyou
TTITLE15=Harapeko MARCH
TTITLE16=Ike! Zanbot3
TTITLE17=Uchu no Hoshiyo Eien ni
TTITLE18=Seisyun ni Kakero!
TTITLE19=Ashitani Mukatte
TTITLE20=Saikyou ROBO Daioja
TTITLE21=Yokattane Uchu
EXTD=
EXTT0=
EXTT1=
EXTT2=
EXTT3=
EXTT4=
EXTT5=
EXTT6=
EXTT7=
EXTT8=
EXTT9=
EXTT10=
EXTT11=
EXTT12=
EXTT13=
EXTT14=
EXTT15=
EXTT16=
EXTT17=
EXTT18=
EXTT19=
EXTT20=
EXTT21=
PLAYORDER=
